<mxfile host="app.diagrams.net" modified="2021-04-29T08:43:57.061Z" agent="5.0 (Windows NT 10.0; Win64; x64) AppleWebKit/537.36 (KHTML, like Gecko) Chrome/89.0.4389.128 Safari/537.36" etag="_WF4kS6FTu5tYZyEH8l4" version="14.5.3" type="github">
  <diagram id="ExddaOvmfKUe_UxlyG8M" name="Page-1">
    <mxGraphModel dx="1422" dy="762" grid="1" gridSize="10" guides="1" tooltips="1" connect="1" arrows="1" fold="1" page="1" pageScale="1" pageWidth="827" pageHeight="1169" math="0" shadow="0">
      <root>
        <mxCell id="0" />
        <mxCell id="1" parent="0" />
        <mxCell id="AMq5rEb-xO6M8xwAcIFR-53" style="edgeStyle=orthogonalEdgeStyle;rounded=0;orthogonalLoop=1;jettySize=auto;html=1;exitX=0.5;exitY=1;exitDx=0;exitDy=0;entryX=0;entryY=0.5;entryDx=0;entryDy=0;" edge="1" parent="1" source="AMq5rEb-xO6M8xwAcIFR-61" target="AMq5rEb-xO6M8xwAcIFR-20">
          <mxGeometry relative="1" as="geometry">
            <Array as="points">
              <mxPoint x="140" y="360" />
            </Array>
          </mxGeometry>
        </mxCell>
        <mxCell id="AMq5rEb-xO6M8xwAcIFR-55" style="edgeStyle=orthogonalEdgeStyle;rounded=0;orthogonalLoop=1;jettySize=auto;html=1;exitX=0.338;exitY=1.017;exitDx=0;exitDy=0;entryX=0;entryY=0.5;entryDx=0;entryDy=0;exitPerimeter=0;" edge="1" parent="1" source="AMq5rEb-xO6M8xwAcIFR-3" target="AMq5rEb-xO6M8xwAcIFR-32">
          <mxGeometry relative="1" as="geometry">
            <Array as="points">
              <mxPoint x="121" y="265" />
              <mxPoint x="100" y="265" />
              <mxPoint x="100" y="470" />
            </Array>
          </mxGeometry>
        </mxCell>
        <mxCell id="AMq5rEb-xO6M8xwAcIFR-57" style="edgeStyle=orthogonalEdgeStyle;rounded=0;orthogonalLoop=1;jettySize=auto;html=1;exitX=0.25;exitY=1;exitDx=0;exitDy=0;entryX=0;entryY=0.5;entryDx=0;entryDy=0;" edge="1" parent="1" source="AMq5rEb-xO6M8xwAcIFR-3" target="AMq5rEb-xO6M8xwAcIFR-42">
          <mxGeometry relative="1" as="geometry">
            <Array as="points">
              <mxPoint x="60" y="265" />
              <mxPoint x="60" y="590" />
            </Array>
          </mxGeometry>
        </mxCell>
        <mxCell id="AMq5rEb-xO6M8xwAcIFR-3" value="&lt;span&gt;172.24.236.30&lt;/span&gt;" style="rounded=0;whiteSpace=wrap;html=1;" vertex="1" parent="1">
          <mxGeometry x="40" y="205" width="240" height="60" as="geometry" />
        </mxCell>
        <mxCell id="AMq5rEb-xO6M8xwAcIFR-4" value="172.24.236.15" style="rounded=0;whiteSpace=wrap;html=1;" vertex="1" parent="1">
          <mxGeometry x="440" y="205" width="240" height="60" as="geometry" />
        </mxCell>
        <mxCell id="AMq5rEb-xO6M8xwAcIFR-7" style="edgeStyle=orthogonalEdgeStyle;rounded=0;orthogonalLoop=1;jettySize=auto;html=1;entryX=0;entryY=0.5;entryDx=0;entryDy=0;" edge="1" parent="1" source="AMq5rEb-xO6M8xwAcIFR-5" target="AMq5rEb-xO6M8xwAcIFR-6">
          <mxGeometry relative="1" as="geometry" />
        </mxCell>
        <mxCell id="AMq5rEb-xO6M8xwAcIFR-5" value="ch1&lt;br&gt;10.1.1.1" style="rounded=0;whiteSpace=wrap;html=1;" vertex="1" parent="1">
          <mxGeometry x="200" y="150" width="80" height="30" as="geometry" />
        </mxCell>
        <mxCell id="AMq5rEb-xO6M8xwAcIFR-6" value="ch1&lt;br&gt;10.1.1.2" style="rounded=0;whiteSpace=wrap;html=1;" vertex="1" parent="1">
          <mxGeometry x="440" y="150" width="80" height="30" as="geometry" />
        </mxCell>
        <mxCell id="AMq5rEb-xO6M8xwAcIFR-8" value="s0ge2" style="rounded=0;whiteSpace=wrap;html=1;" vertex="1" parent="1">
          <mxGeometry x="200" y="180" width="40" height="25" as="geometry" />
        </mxCell>
        <mxCell id="AMq5rEb-xO6M8xwAcIFR-9" value="s0ge5" style="rounded=0;whiteSpace=wrap;html=1;" vertex="1" parent="1">
          <mxGeometry x="240" y="180" width="40" height="25" as="geometry" />
        </mxCell>
        <mxCell id="AMq5rEb-xO6M8xwAcIFR-10" value="ge2" style="rounded=0;whiteSpace=wrap;html=1;" vertex="1" parent="1">
          <mxGeometry x="440" y="180" width="40" height="25" as="geometry" />
        </mxCell>
        <mxCell id="AMq5rEb-xO6M8xwAcIFR-11" value="ge3" style="rounded=0;whiteSpace=wrap;html=1;" vertex="1" parent="1">
          <mxGeometry x="480" y="180" width="40" height="25" as="geometry" />
        </mxCell>
        <mxCell id="AMq5rEb-xO6M8xwAcIFR-12" value="s0ge3" style="rounded=0;whiteSpace=wrap;html=1;" vertex="1" parent="1">
          <mxGeometry x="40" y="180" width="40" height="25" as="geometry" />
        </mxCell>
        <mxCell id="AMq5rEb-xO6M8xwAcIFR-14" value="" style="edgeStyle=orthogonalEdgeStyle;rounded=0;orthogonalLoop=1;jettySize=auto;html=1;" edge="1" parent="1" source="AMq5rEb-xO6M8xwAcIFR-13" target="AMq5rEb-xO6M8xwAcIFR-12">
          <mxGeometry relative="1" as="geometry" />
        </mxCell>
        <mxCell id="AMq5rEb-xO6M8xwAcIFR-13" value="PC&lt;br&gt;131.131.131.14" style="rounded=1;whiteSpace=wrap;html=1;" vertex="1" parent="1">
          <mxGeometry x="10" y="40" width="100" height="30" as="geometry" />
        </mxCell>
        <mxCell id="AMq5rEb-xO6M8xwAcIFR-15" value="ge1" style="rounded=0;whiteSpace=wrap;html=1;" vertex="1" parent="1">
          <mxGeometry x="640" y="180" width="40" height="25" as="geometry" />
        </mxCell>
        <mxCell id="AMq5rEb-xO6M8xwAcIFR-16" value="" style="edgeStyle=orthogonalEdgeStyle;rounded=0;orthogonalLoop=1;jettySize=auto;html=1;" edge="1" parent="1" target="AMq5rEb-xO6M8xwAcIFR-17">
          <mxGeometry relative="1" as="geometry">
            <mxPoint x="660" y="180" as="sourcePoint" />
          </mxGeometry>
        </mxCell>
        <mxCell id="AMq5rEb-xO6M8xwAcIFR-17" value="PC&lt;br&gt;132.131.131.2" style="rounded=1;whiteSpace=wrap;html=1;" vertex="1" parent="1">
          <mxGeometry x="610" y="40" width="100" height="30" as="geometry" />
        </mxCell>
        <mxCell id="AMq5rEb-xO6M8xwAcIFR-18" value="132.131.131.1" style="text;html=1;strokeColor=none;fillColor=none;align=center;verticalAlign=middle;whiteSpace=wrap;rounded=0;" vertex="1" parent="1">
          <mxGeometry x="620" y="205" width="40" height="20" as="geometry" />
        </mxCell>
        <mxCell id="AMq5rEb-xO6M8xwAcIFR-19" value="131.131.131.1" style="text;html=1;strokeColor=none;fillColor=none;align=center;verticalAlign=middle;whiteSpace=wrap;rounded=0;" vertex="1" parent="1">
          <mxGeometry x="60" y="205" width="40" height="20" as="geometry" />
        </mxCell>
        <mxCell id="AMq5rEb-xO6M8xwAcIFR-20" value="&lt;span&gt;172.24.236.34 (MPU)&lt;/span&gt;" style="rounded=1;whiteSpace=wrap;html=1;" vertex="1" parent="1">
          <mxGeometry x="160" y="330" width="320" height="60" as="geometry" />
        </mxCell>
        <mxCell id="AMq5rEb-xO6M8xwAcIFR-23" value="s0ge0" style="rounded=0;whiteSpace=wrap;html=1;" vertex="1" parent="1">
          <mxGeometry x="160" y="390" width="40" height="25" as="geometry" />
        </mxCell>
        <mxCell id="AMq5rEb-xO6M8xwAcIFR-24" value="s0ge1" style="rounded=0;whiteSpace=wrap;html=1;" vertex="1" parent="1">
          <mxGeometry x="200" y="390" width="40" height="25" as="geometry" />
        </mxCell>
        <mxCell id="AMq5rEb-xO6M8xwAcIFR-25" value="s0ge2" style="rounded=0;whiteSpace=wrap;html=1;" vertex="1" parent="1">
          <mxGeometry x="240" y="390" width="40" height="25" as="geometry" />
        </mxCell>
        <mxCell id="AMq5rEb-xO6M8xwAcIFR-26" value="s0ge3" style="rounded=0;whiteSpace=wrap;html=1;" vertex="1" parent="1">
          <mxGeometry x="280" y="390" width="40" height="25" as="geometry" />
        </mxCell>
        <mxCell id="AMq5rEb-xO6M8xwAcIFR-27" value="s0ge4" style="rounded=0;whiteSpace=wrap;html=1;" vertex="1" parent="1">
          <mxGeometry x="320" y="390" width="40" height="25" as="geometry" />
        </mxCell>
        <mxCell id="AMq5rEb-xO6M8xwAcIFR-28" value="s0ge5" style="rounded=0;whiteSpace=wrap;html=1;" vertex="1" parent="1">
          <mxGeometry x="360" y="390" width="40" height="25" as="geometry" />
        </mxCell>
        <mxCell id="AMq5rEb-xO6M8xwAcIFR-29" value="s0ge6" style="rounded=0;whiteSpace=wrap;html=1;" vertex="1" parent="1">
          <mxGeometry x="400" y="390" width="40" height="25" as="geometry" />
        </mxCell>
        <mxCell id="AMq5rEb-xO6M8xwAcIFR-30" value="s0ge7" style="rounded=0;whiteSpace=wrap;html=1;" vertex="1" parent="1">
          <mxGeometry x="440" y="390" width="40" height="25" as="geometry" />
        </mxCell>
        <mxCell id="AMq5rEb-xO6M8xwAcIFR-31" value="eth3" style="text;html=1;strokeColor=none;fillColor=none;align=center;verticalAlign=middle;whiteSpace=wrap;rounded=0;" vertex="1" parent="1">
          <mxGeometry x="160" y="350" width="40" height="20" as="geometry" />
        </mxCell>
        <mxCell id="AMq5rEb-xO6M8xwAcIFR-32" value="&lt;span&gt;172.24.236.34(SLAVE)&lt;/span&gt;" style="rounded=1;whiteSpace=wrap;html=1;" vertex="1" parent="1">
          <mxGeometry x="160" y="440" width="320" height="60" as="geometry" />
        </mxCell>
        <mxCell id="AMq5rEb-xO6M8xwAcIFR-33" value="s0ge0" style="rounded=0;whiteSpace=wrap;html=1;" vertex="1" parent="1">
          <mxGeometry x="160" y="500" width="40" height="25" as="geometry" />
        </mxCell>
        <mxCell id="AMq5rEb-xO6M8xwAcIFR-34" value="s0ge1" style="rounded=0;whiteSpace=wrap;html=1;" vertex="1" parent="1">
          <mxGeometry x="200" y="500" width="40" height="25" as="geometry" />
        </mxCell>
        <mxCell id="AMq5rEb-xO6M8xwAcIFR-35" value="s0ge2" style="rounded=0;whiteSpace=wrap;html=1;" vertex="1" parent="1">
          <mxGeometry x="240" y="500" width="40" height="25" as="geometry" />
        </mxCell>
        <mxCell id="AMq5rEb-xO6M8xwAcIFR-36" value="s0ge3" style="rounded=0;whiteSpace=wrap;html=1;" vertex="1" parent="1">
          <mxGeometry x="280" y="500" width="40" height="25" as="geometry" />
        </mxCell>
        <mxCell id="AMq5rEb-xO6M8xwAcIFR-37" value="s0ge4" style="rounded=0;whiteSpace=wrap;html=1;" vertex="1" parent="1">
          <mxGeometry x="320" y="500" width="40" height="25" as="geometry" />
        </mxCell>
        <mxCell id="AMq5rEb-xO6M8xwAcIFR-38" value="s0ge5" style="rounded=0;whiteSpace=wrap;html=1;" vertex="1" parent="1">
          <mxGeometry x="360" y="500" width="40" height="25" as="geometry" />
        </mxCell>
        <mxCell id="AMq5rEb-xO6M8xwAcIFR-39" value="s0ge6" style="rounded=0;whiteSpace=wrap;html=1;" vertex="1" parent="1">
          <mxGeometry x="400" y="500" width="40" height="25" as="geometry" />
        </mxCell>
        <mxCell id="AMq5rEb-xO6M8xwAcIFR-40" value="s0ge7" style="rounded=0;whiteSpace=wrap;html=1;" vertex="1" parent="1">
          <mxGeometry x="440" y="500" width="40" height="25" as="geometry" />
        </mxCell>
        <mxCell id="AMq5rEb-xO6M8xwAcIFR-41" value="eth3" style="text;html=1;strokeColor=none;fillColor=none;align=center;verticalAlign=middle;whiteSpace=wrap;rounded=0;" vertex="1" parent="1">
          <mxGeometry x="160" y="460" width="40" height="20" as="geometry" />
        </mxCell>
        <mxCell id="AMq5rEb-xO6M8xwAcIFR-42" value="&lt;span&gt;172.24.236.34(SPU)&lt;/span&gt;" style="rounded=1;whiteSpace=wrap;html=1;" vertex="1" parent="1">
          <mxGeometry x="160" y="560" width="320" height="60" as="geometry" />
        </mxCell>
        <mxCell id="AMq5rEb-xO6M8xwAcIFR-43" value="s0ge0" style="rounded=0;whiteSpace=wrap;html=1;" vertex="1" parent="1">
          <mxGeometry x="160" y="620" width="40" height="25" as="geometry" />
        </mxCell>
        <mxCell id="AMq5rEb-xO6M8xwAcIFR-44" value="s0ge1" style="rounded=0;whiteSpace=wrap;html=1;" vertex="1" parent="1">
          <mxGeometry x="200" y="620" width="40" height="25" as="geometry" />
        </mxCell>
        <mxCell id="AMq5rEb-xO6M8xwAcIFR-45" value="s0ge2" style="rounded=0;whiteSpace=wrap;html=1;" vertex="1" parent="1">
          <mxGeometry x="240" y="620" width="40" height="25" as="geometry" />
        </mxCell>
        <mxCell id="AMq5rEb-xO6M8xwAcIFR-46" value="s0ge3" style="rounded=0;whiteSpace=wrap;html=1;" vertex="1" parent="1">
          <mxGeometry x="280" y="620" width="40" height="25" as="geometry" />
        </mxCell>
        <mxCell id="AMq5rEb-xO6M8xwAcIFR-47" value="s0ge4" style="rounded=0;whiteSpace=wrap;html=1;" vertex="1" parent="1">
          <mxGeometry x="320" y="620" width="40" height="25" as="geometry" />
        </mxCell>
        <mxCell id="AMq5rEb-xO6M8xwAcIFR-48" value="s0ge5" style="rounded=0;whiteSpace=wrap;html=1;" vertex="1" parent="1">
          <mxGeometry x="360" y="620" width="40" height="25" as="geometry" />
        </mxCell>
        <mxCell id="AMq5rEb-xO6M8xwAcIFR-49" value="s0ge6" style="rounded=0;whiteSpace=wrap;html=1;" vertex="1" parent="1">
          <mxGeometry x="400" y="620" width="40" height="25" as="geometry" />
        </mxCell>
        <mxCell id="AMq5rEb-xO6M8xwAcIFR-50" value="s0ge7" style="rounded=0;whiteSpace=wrap;html=1;" vertex="1" parent="1">
          <mxGeometry x="440" y="620" width="40" height="25" as="geometry" />
        </mxCell>
        <mxCell id="AMq5rEb-xO6M8xwAcIFR-51" value="eth3" style="text;html=1;strokeColor=none;fillColor=none;align=center;verticalAlign=middle;whiteSpace=wrap;rounded=0;" vertex="1" parent="1">
          <mxGeometry x="160" y="580" width="40" height="20" as="geometry" />
        </mxCell>
        <mxCell id="AMq5rEb-xO6M8xwAcIFR-59" value="s1ge1" style="rounded=0;whiteSpace=wrap;html=1;" vertex="1" parent="1">
          <mxGeometry x="40" y="240" width="40" height="25" as="geometry" />
        </mxCell>
        <mxCell id="AMq5rEb-xO6M8xwAcIFR-60" value="s1ge3" style="rounded=0;whiteSpace=wrap;html=1;" vertex="1" parent="1">
          <mxGeometry x="80" y="240" width="40" height="25" as="geometry" />
        </mxCell>
        <mxCell id="AMq5rEb-xO6M8xwAcIFR-61" value="s1ge2" style="rounded=0;whiteSpace=wrap;html=1;" vertex="1" parent="1">
          <mxGeometry x="120" y="240" width="40" height="25" as="geometry" />
        </mxCell>
        <mxCell id="AMq5rEb-xO6M8xwAcIFR-62" value="Container" style="swimlane;" vertex="1" parent="1">
          <mxGeometry x="610" y="340" width="200" height="180" as="geometry" />
        </mxCell>
        <mxCell id="AMq5rEb-xO6M8xwAcIFR-63" value="&lt;div&gt;&lt;b&gt;s0ge0 ==&amp;gt; s1ge5 (15)&amp;nbsp;&lt;/b&gt;&lt;/div&gt;&lt;div&gt;&lt;b&gt;s0ge1 ==&amp;gt; s1ge6&amp;nbsp;&lt;/b&gt;&lt;/div&gt;&lt;div&gt;&lt;b&gt;s0ge2 ==&amp;gt; s1ge7&amp;nbsp;&lt;/b&gt;&lt;/div&gt;&lt;div&gt;&lt;b&gt;s0ge3 ==&amp;gt; s1ge8&amp;nbsp;&lt;/b&gt;&lt;/div&gt;&lt;div&gt;&lt;b&gt;s0ge4 ==&amp;gt; s2ge5&amp;nbsp;&lt;/b&gt;&lt;/div&gt;&lt;div&gt;&lt;b&gt;s0ge5 ==&amp;gt; s2ge7&amp;nbsp;&lt;/b&gt;&lt;/div&gt;&lt;div&gt;&lt;b&gt;s0xg6 ==&amp;gt; s3xg1&amp;nbsp;&lt;/b&gt;&lt;/div&gt;&lt;div&gt;&lt;b&gt;s0xg7 ==&amp;gt; s3xg2&amp;nbsp;&lt;/b&gt;&lt;/div&gt;&lt;div&gt;&lt;b&gt;s0ge8 ==&amp;gt; s2ge3&amp;nbsp;&lt;/b&gt;&lt;/div&gt;&lt;div&gt;&lt;b&gt;s0ge9 ==&amp;gt; s2ge4&lt;/b&gt;&lt;/div&gt;" style="text;html=1;align=center;verticalAlign=middle;resizable=0;points=[];autosize=1;" vertex="1" parent="1">
          <mxGeometry x="610" y="365" width="140" height="150" as="geometry" />
        </mxCell>
      </root>
    </mxGraphModel>
  </diagram>
</mxfile>
